<svg xmlns="http://www.w3.org/2000/svg" x="0px" y="0px" width="50" height="50" viewBox="0 0 48 48">
<path d="M 40.455078 6 A 1.50015 1.50015 0 0 0 40.167969 6.0371094 L 20.501953 10.505859 C 18.461283 10.969854 17 12.803006 17 14.894531 L 17 15.5 L 17 20.5 L 17 32.291016 C 15.713708 31.506354 14.193199 31 12.5 31 C 10.539147 31 8.7361897 31.583111 7.3574219 32.617188 C 5.978654 33.651263 5 35.21692 5 37 C 5 38.78308 5.978654 40.348737 7.3574219 41.382812 C 8.7361897 42.416889 10.539147 43 12.5 43 C 14.460853 43 16.26381 42.416889 17.642578 41.382812 C 19.021346 40.348737 20 38.78308 20 37 C 20 36.9472 19.962637 36.90593 19.960938 36.853516 A 1.50015 1.50015 0 0 0 20 36.5 L 20 21.697266 L 39 17.378906 L 39 28.291016 C 37.713708 27.506354 36.193199 27 34.5 27 C 32.539147 27 30.73619 27.583111 29.357422 28.617188 C 27.978654 29.651264 27 31.21692 27 33 C 27 34.78308 27.978654 36.348737 29.357422 37.382812 C 30.73619 38.416889 32.539147 39 34.5 39 C 36.460853 39 38.26381 38.416889 39.642578 37.382812 C 41.021346 36.348737 42 34.78308 42 33 C 42 32.9472 41.962637 32.90593 41.960938 32.853516 A 1.50015 1.50015 0 0 0 42 32.5 L 42 15.5 L 42 12.5 L 42 7.5 A 1.50015 1.50015 0 0 0 40.455078 6 z M 39 9.3789062 L 39 12.5 L 39 14.302734 L 20 18.621094 L 20 15.5 L 20 14.894531 C 20 14.186674 20.47563 13.588317 21.166016 13.431641 A 1.50015 1.50015 0 0 0 21.167969 13.431641 L 39 9.3789062 z M 34.5 30 C 35.852858 30 37.048994 30.422975 37.841797 31.017578 C 38.6346 31.612181 39 32.297798 39 33 C 39 33.702202 38.6346 34.387819 37.841797 34.982422 C 37.048994 35.577025 35.852858 36 34.5 36 C 33.147142 36 31.951006 35.577025 31.158203 34.982422 C 30.3654 34.387819 30 33.702202 30 33 C 30 32.297798 30.3654 31.612181 31.158203 31.017578 C 31.951006 30.422975 33.147142 30 34.5 30 z M 12.5 34 C 13.852858 34 15.048994 34.422975 15.841797 35.017578 C 16.6346 35.612181 17 36.297798 17 37 C 17 37.702202 16.6346 38.387819 15.841797 38.982422 C 15.048994 39.577025 13.852858 40 12.5 40 C 11.147142 40 9.9510063 39.577025 9.1582031 38.982422 C 8.3653999 38.387819 8 37.702202 8 37 C 8 36.297798 8.3653999 35.612181 9.1582031 35.017578 C 9.9510063 34.422975 11.147142 34 12.5 34 z"></path>
</svg>